<svg xmlns="http://www.w3.org/2000/svg" viewBox="0 0 134.937 134.937" height="510" width="510"><path d="M67.469 9.525A57.944 57.944 0 0029.95 23.398a89.26 64.972 16.871 00.99 4.723 89.26 64.972 16.871 01-.99-4.723 57.944 57.944 0 00-.003.002 57.944 57.944 0 00-4.15 3.9 57.944 57.944 0 00-.376.417 57.944 57.944 0 00-3.368 3.868 57.944 57.944 0 00-.351.461 57.944 57.944 0 00-2.953 4.168 57.944 57.944 0 00-.463.755 57.944 57.944 0 00-2.369 4.17 57.944 57.944 0 00-.528 1.095 57.944 57.944 0 00-1.44 3.254 57.944 57.944 0 00-.361.817 57.944 57.944 0 00-.543 1.487 57.944 57.944 0 00-1.272 3.882 57.944 57.944 0 00-.481 1.887 57.944 57.944 0 00-.798 3.627 57.944 57.944 0 00-.396 2.717 57.944 57.944 0 00-.34 2.9 57.944 57.944 0 00-.233 4.664 57.944 57.944 0 00.247 4.937 57.944 57.944 0 00.64 4.8 57.944 57.944 0 00.14.934 57.944 57.944 0 001.257 5.26 57.944 57.944 0 00.095.373 57.944 57.944 0 001.537 4.457 57.944 57.944 0 00.367 1.006 57.944 57.944 0 001.186 2.651 57.944 57.944 0 001.254 2.596 57.944 57.944 0 001.446 2.52 57.944 57.944 0 00.934 1.524 57.944 57.944 0 00.575.937 57.944 57.944 0 001.682 2.352 57.944 57.944 0 001.755 2.309 57.944 57.944 0 001.907 2.171 57.944 57.944 0 001.975 2.12 57.944 57.944 0 002.12 1.974 57.944 57.944 0 002.17 1.908 57.944 57.944 0 002.31 1.755 57.944 57.944 0 001.566 1.12 57.944 57.944 0 00.786.562 57.944 57.944 0 002.46 1.508 57.944 57.944 0 002.52 1.446 57.944 57.944 0 002.596 1.254 57.944 57.944 0 002.651 1.187 57.944 57.944 0 005.391 1.88 57.944 57.944 0 00.073.024 57.944 57.944 0 003.213.808 57.944 57.944 0 002.413.542 57.944 57.944 0 002.868.433 57.944 57.944 0 002.872.348 57.944 57.944 0 004.938.247 57.944 57.944 0 0051.325-31.145 57.944 57.944 0 006.618-26.798A57.944 57.944 0 0067.47 9.525zM31.816 31.482a89.26 64.972 16.871 001.134 3.361 89.26 64.972 16.871 01-1.134-3.361zm2.432 6.692a89.26 64.972 16.871 001.547 3.308 89.26 64.972 16.871 01-1.547-3.308zm3.258 6.59a89.26 64.972 16.871 001.946 3.227 89.26 64.972 16.871 01-1.946-3.227zm4.05 6.414a89.26 64.972 16.871 002.33 3.124 89.26 64.972 16.871 01-2.33-3.124zm4.803 6.186a89.26 64.972 16.871 002.685 2.977 89.26 64.972 16.871 01-2.685-2.977zm5.507 5.889a89.26 64.972 16.871 003.02 2.81 89.26 64.972 16.871 01-3.02-2.81zm6.155 5.533a89.26 64.972 16.871 003.32 2.61 89.26 64.972 16.871 01-3.32-2.61zm6.75 5.13a89.26 64.972 16.871 003.577 2.377 89.26 64.972 16.871 01-3.576-2.377zm7.266 4.664a89.26 64.972 16.871 003.812 2.13 89.26 64.972 16.871 01-3.812-2.13zm7.712 4.157a89.26 64.972 16.871 004.01 1.862 89.26 64.972 16.871 01-4.01-1.862zm8.084 3.609a89.26 64.972 16.871 004.16 1.571 89.26 64.972 16.871 01-4.16-1.571zm10.079 3.61a89.26 64.972 16.871 006.048 1.576 89.26 64.972 16.871 01-6.048-1.575zm10.388 2.572a89.26 64.972 16.871 004.364.8 89.26 64.972 16.871 01-4.364-.8z" fill="#ff8080"/></svg>