<svg xmlns="http://www.w3.org/2000/svg" viewBox="0 0 13.233 13.235" height="50.024" width="50.016"><g transform="translate(-60.85 -94.655)"><circle cx="67.469" cy="101.273" r="2.646" fill="none" stroke="#324047" stroke-width=".794" stroke-linejoin="round"/><path d="M72.215 101.697c-.555-.034-.98-.248-.99-.505-.01-.256.41-.505.961-.582.551-.078 1.042.247 1.052.504.01.256-.467.617-1.023.583m-1.7 3.241c-.368-.417-.516-.868-.342-1.057.175-.188.648-.065 1.091.271.443.336.561.91.387 1.099-.175.188-.767.104-1.135-.313m-3.497 1.08c.034-.555.248-.978.505-.988.256-.009.504.413.58.965.076.55-.247 1.039-.504 1.048-.256.01-.615-.47-.581-1.025m-3.232-1.717c.416-.369.866-.515 1.055-.34.188.174.063.649-.273 1.092-.336.443-.908.56-1.097.385-.188-.175-.102-.769.315-1.137m-1.061-3.504c.555.034.975.249.985.505.01.257-.416.505-.967.58-.551.076-1.037-.246-1.046-.503-.01-.257.473-.617 1.028-.582m1.794-3.27c.328.45.454.913.28 1.1-.176.189-.651.061-1.093-.277-.442-.338-.558-.906-.383-1.094.175-.188.868-.177 1.196.272m3.531-.987c-.09.55-.33.964-.586.974-.256.01-.505-.42-.583-.97-.077-.55.248-1.033.505-1.043.256-.01.754.49.664 1.04m3.178 1.803c-.45.328-.908.451-1.096.276-.188-.175-.059-.652.28-1.094.338-.442.904-.556 1.092-.38.188.174.174.87-.276 1.198" fill="#324047"/></g></svg>