<svg xmlns="http://www.w3.org/2000/svg" viewBox="0 0 134.937 134.937" height="510" width="510"><path d="M29.95 23.398a57.944 57.944 0 00-20.425 44.07 57.944 57.944 0 0057.944 57.944 57.944 57.944 0 0051.325-31.145 89.26 64.972 16.871 01-20.882-4.31 89.26 64.972 16.871 01-67.962-66.56z" fill="#5b6269"/><path d="M67.469 9.525A57.944 57.944 0 0029.95 23.398a89.26 64.972 16.871 0067.962 66.559 89.26 64.972 16.871 0020.882 4.31 57.944 57.944 0 006.618-26.798A57.944 57.944 0 0067.47 9.525zM29.948 23.4a57.944 57.944 0 00-4.15 3.9 57.944 57.944 0 014.15-3.9zm-4.34 4.104a57.944 57.944 0 00-3.555 4.08 57.944 57.944 0 013.554-4.08zm-3.906 4.542a57.944 57.944 0 00-2.953 4.168 57.944 57.944 0 012.953-4.168zm-3.416 4.923a57.944 57.944 0 00-2.369 4.17 57.944 57.944 0 012.369-4.17zm-2.897 5.265a57.944 57.944 0 00-1.801 4.07 57.944 57.944 0 011.8-4.07zm-2.344 5.558a57.944 57.944 0 00-1.272 3.882 57.944 57.944 0 011.272-3.882zm-1.753 5.77a57.944 57.944 0 00-.798 3.626 57.944 57.944 0 01.798-3.627zm-1.146 5.927a57.944 57.944 0 00-.388 3.316 57.944 57.944 0 01.388-3.316zm-.621 7.98a57.944 57.944 0 00.247 4.937 57.944 57.944 0 01-.247-4.937zm.597 7.82a57.944 57.944 0 00.43 2.85 57.944 57.944 0 01-.43-2.85zm1.066 5.68a57.944 57.944 0 00.716 2.804 57.944 57.944 0 01-.716-2.804zm1.628 5.55a57.944 57.944 0 00.992 2.717 57.944 57.944 0 01-.992-2.717zm2.178 5.368a57.944 57.944 0 001.254 2.596 57.944 57.944 0 01-1.254-2.596zm103.8 2.38a57.944 57.944 0 01-2.215 3.818 57.944 57.944 0 002.214-3.817zm-101.1 2.736a57.944 57.944 0 001.509 2.46 57.944 57.944 0 01-1.509-2.46zm98.356 1.947a57.944 57.944 0 01-2.79 3.91 57.944 57.944 0 002.79-3.91zm-95.165 2.866a57.944 57.944 0 001.755 2.309 57.944 57.944 0 01-1.755-2.309zm91.749 1.867a57.944 57.944 0 01-3.072 3.503 57.944 57.944 0 003.072-3.503zm-88.087 2.613a57.944 57.944 0 001.975 2.12 57.944 57.944 0 01-1.975-2.12zm84.216 1.747a57.944 57.944 0 01-3.299 3.077 57.944 57.944 0 003.299-3.077zM28.64 110.39a57.944 57.944 0 002.172 1.908 57.944 57.944 0 01-2.172-1.908zm75.827 1.606a57.944 57.944 0 01-3.445 2.623 57.944 57.944 0 003.445-2.623zm-71.347 2.057a57.944 57.944 0 002.353 1.682 57.944 57.944 0 01-2.353-1.682zm66.665 1.451a57.944 57.944 0 01-3.51 2.157 57.944 57.944 0 003.51-2.157zm-61.852 1.74a57.944 57.944 0 002.52 1.445 57.944 57.944 0 01-2.52-1.446zm56.839 1.279a57.944 57.944 0 01-3.529 1.708 57.944 57.944 0 003.529-1.708zm-51.723 1.42a57.944 57.944 0 002.651 1.187 57.944 57.944 0 01-2.65-1.187zm46.435 1.075a57.944 57.944 0 01-3.479 1.274 57.944 57.944 0 003.479-1.274zm-41.066 1.103a57.944 57.944 0 002.746.913 57.944 57.944 0 01-2.746-.913zm35.542.85a57.944 57.944 0 01-3.37.864 57.944 57.944 0 003.37-.864zm-29.987.78a57.944 57.944 0 002.817.633 57.944 57.944 0 01-2.817-.633zm24.3.604a57.944 57.944 0 01-3.22.49 57.944 57.944 0 003.22-.49zm-18.615.462a57.944 57.944 0 002.872.348 57.944 57.944 0 01-2.872-.348zm12.81.34a57.944 57.944 0 01-5 .255 57.944 57.944 0 005-.254z" fill="#5c686d"/></svg>